<svg xmlns="http://www.w3.org/2000/svg" viewBox="0 0 800 600" fill="none">
  <!-- Background Elements -->
  <circle cx="400" cy="300" r="250" fill="#F3F4F6" opacity="0.5"/>
  <circle cx="400" cy="300" r="200" fill="#F8F9FA" opacity="0.7"/>
  
  <!-- Marketing Graph -->
  <path d="M200 450 L350 300 L500 350 L650 200" stroke="#9370DB" strokeWidth="4" fill="none"/>
  <circle cx="350" cy="300" r="8" fill="#9370DB"/>
  <circle cx="500" cy="350" r="8" fill="#9370DB"/>
  <circle cx="650" cy="200" r="8" fill="#9370DB"/>
  
  <!-- Gift Box -->
  <rect x="300" y="250" width="100" height="100" fill="#F4A261"/>
  <rect x="320" y="230" width="60" height="20" fill="#E48E38"/>
  <path d="M350 230 L350 350" stroke="#FFFFFF" strokeWidth="4"/>
  <path d="M300 280 L400 280" stroke="#FFFFFF" strokeWidth="4"/>
  
  <!-- Abstract Shapes -->
  <circle cx="200" cy="200" r="30" fill="#9370DB" opacity="0.2"/>
  <circle cx="600" cy="400" r="40" fill="#F4A261" opacity="0.2"/>
  <rect x="150" y="350" width="50" height="50" fill="#9370DB" opacity="0.1" transform="rotate(45 175 375)"/>
  <rect x="550" y="150" width="60" height="60" fill="#F4A261" opacity="0.1" transform="rotate(-15 580 180)"/>
  
  <!-- Decorative Lines -->
  <line x1="100" y1="200" x2="150" y2="200" stroke="#9370DB" strokeWidth="2" opacity="0.5"/>
  <line x1="650" y1="400" x2="700" y2="400" stroke="#F4A261" strokeWidth="2" opacity="0.5"/>
  <line x1="400" y1="100" x2="400" y2="150" stroke="#9370DB" strokeWidth="2" opacity="0.5"/>
  
  <!-- Small Icons -->
  <circle cx="150" cy="450" r="15" fill="#9370DB" opacity="0.3"/>
  <circle cx="650" cy="150" r="15" fill="#F4A261" opacity="0.3"/>
  <rect x="150" y="150" width="20" height="20" fill="#9370DB" opacity="0.3" transform="rotate(45 160 160)"/>
</svg> 